<svg xmlns="http://www.w3.org/2000/svg" xmlns:svg="http://www.w3.org/2000/svg" id="svg820" width="24" height="24" version="1.1" viewBox="0 0 24 24"><metadata id="metadata817"/><g id="layer1" transform="translate(0,-290.64999)"><path style="fill:#000;fill-rule:evenodd;stroke:none;stroke-width:0;stroke-linecap:butt;stroke-linejoin:miter;stroke-opacity:1;stroke-miterlimit:4;stroke-dasharray:none;fill-opacity:1" id="path823" d="m 5,297.64999 h 2 v 2 H 5 Z"/><path style="fill:#000;fill-rule:evenodd;stroke:#000;stroke-width:0;stroke-linecap:butt;stroke-linejoin:miter;stroke-opacity:1;stroke-miterlimit:4;stroke-dasharray:none;fill-opacity:1" id="path821" d="M 12,312.64999 H 1 v -21 h 22 v 12 h -2 v -8 H 3 v 15 h 9 z"/><path style="fill:#000;fill-opacity:1;fill-rule:evenodd;stroke:none;stroke-width:0;stroke-linecap:butt;stroke-linejoin:miter;stroke-miterlimit:4;stroke-dasharray:none;stroke-opacity:1" id="path823-3" d="m 8,297.64999 h 10 v 2 H 8 Z"/><path style="fill:#000;fill-opacity:1;fill-rule:evenodd;stroke:none;stroke-width:0;stroke-linecap:butt;stroke-linejoin:miter;stroke-miterlimit:4;stroke-dasharray:none;stroke-opacity:1" id="path823-6" d="m 5,301.64999 h 2 v 2 H 5 Z"/><path style="fill:#000;fill-opacity:1;fill-rule:evenodd;stroke:none;stroke-width:0;stroke-linecap:butt;stroke-linejoin:miter;stroke-miterlimit:4;stroke-dasharray:none;stroke-opacity:1" id="path823-3-7" d="m 8,301.64999 h 10 v 2 H 8 Z"/><path style="fill:#000;fill-opacity:1;fill-rule:evenodd;stroke:none;stroke-width:0;stroke-linecap:butt;stroke-linejoin:miter;stroke-miterlimit:4;stroke-dasharray:none;stroke-opacity:1" id="path823-6-5" d="m 5,305.64999 h 2 v 2 H 5 Z"/><path style="fill:#000;fill-opacity:1;fill-rule:evenodd;stroke:none;stroke-width:0;stroke-linecap:butt;stroke-linejoin:miter;stroke-miterlimit:4;stroke-dasharray:none;stroke-opacity:1" id="path823-3-7-3" d="m 8,305.64999 h 8 l -2,2 H 8 Z"/><path style="fill:#000;fill-opacity:1;fill-rule:evenodd;stroke:none;stroke-width:1px;stroke-linecap:butt;stroke-linejoin:miter;stroke-opacity:1" id="path983" d="m 16,312.64999 h -1 l -1,-1 h -1 v 2 h 3 l 7,-7 -3,-3 -7,7 v 1 h 1 v -1 l 5,-5 2,2 z"/><path style="fill:#000;fill-opacity:1;fill-rule:evenodd;stroke:none;stroke-width:1px;stroke-linecap:butt;stroke-linejoin:miter;stroke-opacity:1" id="path1372" d="m 15.5,309.14999 v 1.5 H 17 v 1 l 0.5,-0.5 v -1 H 16 v -1.5 z"/></g></svg>