<svg xmlns="http://www.w3.org/2000/svg" xmlns:svg="http://www.w3.org/2000/svg" id="svg6" width="24" height="24" version="1.1" viewBox="0 0 24 24"><metadata id="metadata12"/><title id="title2">uniE170</title><path id="path4" d="m 8.26585,0.79965 11.1811,0.0371 q 0.3731,0.0189 0.6531,0.2891 0.28,0.2702 0.28,0.6629 l 0.0189,11.144 q 0,0.392 -0.196,0.4669 -0.196,0.0749 -0.4571,-0.1869 l -3.8829,-3.8829 -2.8931,2.8749 -3.9571,-3.9571 2.8931,-2.8749 -3.92,-3.92 q -0.2611,-0.2611 -0.1869,-0.4571 0.0742,-0.196 0.4669,-0.196 z m 3.248,12.8429 -1.4189,1.4371 q -0.28,0.2611 -0.672,0.2611 -0.392,0 -0.6531,-0.2611 l -2.6509,-2.6509 q -0.2611,-0.2611 -0.2611,-0.6531 0,-0.392 0.2611,-0.6531 l 1.4371,-1.4371 z m -8.848,3.9571 h 18.6669 q 0.392,0 0.6629,0.2709 0.2709,0.2709 0.2709,0.6629 v 4.6669 H 1.73345 v -4.6669 q 0,-0.392 0.2709,-0.6629 0.2709,-0.2709 0.6629,-0.2709 z m 15.8669,1.8669 v 0.9331 h 1.8669 v -0.9331 z" style="stroke-width:.69999999"/></svg>