<svg xmlns="http://www.w3.org/2000/svg" xmlns:svg="http://www.w3.org/2000/svg" id="Capa_1" width="24" height="24" x="0" y="0" version="1.1" viewBox="0 0 24 24" xml:space="preserve"><metadata id="metadata47"/><g id="g10" transform="matrix(0.04424334,0,0,0.04424334,1.1456098,0.91230727)"><g id="g8"><path id="circle2" d="M 267.75,248.625 A 19.125,19.125 0 0 1 248.625,267.75 19.125,19.125 0 0 1 229.5,248.625 19.125,19.125 0 0 1 248.625,229.5 19.125,19.125 0 0 1 267.75,248.625 Z"/><path id="path4" d="m 248.625,172.125 c -42.075,0 -76.5,34.425 -76.5,76.5 0,42.075 34.425,76.5 76.5,76.5 42.075,0 76.5,-34.425 76.5,-76.5 0,-42.075 -34.425,-76.5 -76.5,-76.5 z m 0,133.875 c -32.513,0 -57.375,-24.862 -57.375,-57.375 0,-32.513 24.862,-57.375 57.375,-57.375 32.513,0 57.375,24.862 57.375,57.375 C 306,281.138 281.138,306 248.625,306 Z"/><path id="path6" d="M 248.625,114.75 C 76.5,114.75 0,248.625 0,248.625 c 0,0 76.5,133.875 248.625,133.875 172.125,0 248.625,-133.875 248.625,-133.875 0,0 -76.5,-133.875 -248.625,-133.875 z m 0,248.625 c -153,0 -225.675,-114.75 -225.675,-114.75 0,0 72.675,-114.75 225.675,-114.75 153,0 225.675,114.75 225.675,114.75 0,0 -72.675,114.75 -225.675,114.75 z"/></g></g></svg>