<svg xmlns="http://www.w3.org/2000/svg" xmlns:svg="http://www.w3.org/2000/svg" id="svg6" width="24" height="24" version="1.1" viewBox="0 0 24 24"><metadata id="metadata12"/><title id="title2">uniE021</title><path id="path4" d="M 0.20360006,11.972 11.7767,0.6229 q 0.1491,-0.1309 0.3451,-0.1309 0.196,0 0.3269,0.1309 L 23.7978,11.972 q 0.1491,0.1491 0.1029,0.2429 -0.0462,0.0938 -0.2331,0.0931 h -3.2669 v 10.7331 q 0,0.1869 -0.14,0.3269 -0.14,0.14 -0.3269,0.14 h -4.6669 q -0.1869,0 -0.3269,-0.14 -0.14,-0.14 -0.14,-0.3269 v -7 H 9.2 v 7 q 0,0.1869 -0.14,0.3269 -0.14,0.14 -0.3269,0.14 H 4.0662 q -0.1869,0 -0.3269,-0.14 -0.14,-0.14 -0.14,-0.3269 V 12.308 H 0.33240006 q -0.1869,0 -0.2331,-0.0931 -0.0462,-0.0931 0.1029,-0.2429 z" style="stroke-width:.69999999"/></svg>