<svg xmlns="http://www.w3.org/2000/svg" xmlns:svg="http://www.w3.org/2000/svg" id="svg8" width="24mm" height="24mm" version="1.1" viewBox="0 0 24 24"><metadata id="metadata5"/><g id="layer1" transform="translate(0,-273)"><path style="color:#000;font-style:normal;font-variant:normal;font-weight:400;font-stretch:normal;font-size:medium;line-height:normal;font-family:sans-serif;font-variant-ligatures:normal;font-variant-position:normal;font-variant-caps:normal;font-variant-numeric:normal;font-variant-alternates:normal;font-feature-settings:normal;text-indent:0;text-align:start;text-decoration:none;text-decoration-line:none;text-decoration-style:solid;text-decoration-color:#000;letter-spacing:normal;word-spacing:normal;text-transform:none;writing-mode:lr-tb;direction:ltr;text-orientation:mixed;dominant-baseline:auto;baseline-shift:baseline;text-anchor:start;white-space:normal;shape-padding:0;clip-rule:nonzero;display:inline;overflow:visible;visibility:visible;opacity:1;isolation:auto;mix-blend-mode:normal;color-interpolation:sRGB;color-interpolation-filters:linearRGB;solid-color:#000;solid-opacity:1;vector-effect:none;fill:#000;fill-opacity:1;fill-rule:evenodd;stroke:none;stroke-width:2.11666656;stroke-linecap:round;stroke-linejoin:bevel;stroke-miterlimit:4;stroke-dasharray:none;stroke-dashoffset:0;stroke-opacity:1;color-rendering:auto;image-rendering:auto;shape-rendering:auto;text-rendering:auto;enable-background:accumulate" id="path4376" d="m 12.039062,274.64258 c -5.6863523,0 -10.3183589,4.632 -10.3183589,10.31836 0,5.68635 4.6320066,10.31836 10.3183589,10.31836 5.686353,0 10.31836,-4.63201 10.31836,-10.31836 0,-5.68636 -4.632007,-10.31836 -10.31836,-10.31836 z m 0,2.11719 c 4.542422,0 8.201172,3.65875 8.201172,8.20117 0,4.54242 -3.65875,8.20312 -8.201172,8.20312 -4.5424208,0 -8.2031245,-3.6607 -8.2031245,-8.20312 0,-4.54242 3.6607037,-8.20117 8.2031245,-8.20117 z"/><g style="font-style:normal;font-variant:normal;font-weight:400;font-stretch:normal;font-size:3.30729151px;line-height:6.61458302px;font-family:Monospace;-inkscape-font-specification:Monospace;text-align:center;letter-spacing:0;word-spacing:0;text-anchor:middle;fill:#000;fill-opacity:1;stroke:none;stroke-width:.26458332px;stroke-linecap:butt;stroke-linejoin:miter;stroke-opacity:1" id="text4380" aria-label="i"><path style="font-style:normal;font-variant:normal;font-weight:700;font-stretch:normal;font-size:14.11111069px;font-family:Monospace;-inkscape-font-specification:'Monospace Bold';fill:#000;fill-opacity:1;stroke:none;stroke-width:.26458332px;stroke-opacity:1" id="path821" d="M 9.055089,282.98053 H 13.0514 v 6.16672 h 2.508029 v 1.55029 H 8.5176541 v -1.55029 h 2.5149199 v -4.61643 H 9.055089 Z m 1.977485,-3.75516 H 13.0514 v 2.35645 h -2.018826 z"/></g></g></svg>