<svg xmlns="http://www.w3.org/2000/svg" xmlns:svg="http://www.w3.org/2000/svg" id="svg6" width="24" height="24" version="1.1" viewBox="0 0 24 24"><metadata id="metadata12"/><title id="title2">uniE086</title><path id="path4" d="m 12,1.2298 q 2.184,0 4.1811,0.8491 1.9971,0.8491 3.444,2.296 1.4469,1.4469 2.296,3.444 0.8491,1.9971 0.8491,4.1811 0,2.184 -0.8491,4.1811 -0.8491,1.9971 -2.296,3.444 -1.4469,1.4469 -3.444,2.296 Q 14.184,22.7702 12,22.7702 9.816,22.7702 7.8189,21.9211 5.8218,21.072 4.3749,19.6251 2.928,18.1782 2.0789,16.1811 1.2298,14.184 1.2298,12 1.2298,9.816 2.0789,7.8189 2.928,5.8218 4.3749,4.3749 5.8218,2.928 7.8189,2.0789 9.816,1.2298 12,1.2298 Z m 1.4,3.304 h -2.8 q -0.1869,0 -0.3269,0.14 -0.14,0.14 -0.14,0.3269 v 2.8 q 0,0.1869 0.14,0.3269 0.14,0.14 0.3269,0.14 h 2.8 q 0.1869,0 0.3269,-0.14 0.14,-0.14 0.14,-0.3269 v -2.8 q 0,-0.1869 -0.14,-0.3269 -0.14,-0.14 -0.3269,-0.14 z m 0,5.6 H 8.7331 q -0.1869,0 -0.3269,0.14 -0.14,0.14 -0.14,0.3269 v 0.9331 q 0,0.1869 0.14,0.3269 0.14,0.14 0.3269,0.14 h 1.4 v 3.7331 h -1.4 q -0.1869,0 -0.3269,0.14 -0.14,0.14 -0.14,0.3269 v 0.9331 q 0,0.1869 0.14,0.3269 0.14,0.14 0.3269,0.14 h 6.5331 q 0.1869,0 0.3269,-0.14 0.14,-0.14 0.14,-0.3269 v -0.9331 q 0,-0.1869 -0.14,-0.3269 -0.14,-0.14 -0.3269,-0.14 h -1.4 v -5.1331 q 0,-0.1869 -0.14,-0.3269 -0.14,-0.14 -0.3269,-0.14 z" style="stroke-width:.69999999"/></svg>