<svg xmlns="http://www.w3.org/2000/svg" xmlns:svg="http://www.w3.org/2000/svg" id="Capa_1" width="24" height="24" version="1.1" viewBox="0 0 24 24" xml:space="preserve"><metadata id="metadata933"/><g id="g896" transform="scale(0.3)"><path id="path894" d="m 29.298,63.471 -4.048,4.02 c -3.509,3.478 -9.216,3.481 -12.723,0 -1.686,-1.673 -2.612,-3.895 -2.612,-6.257 0,-2.362 0.927,-4.585 2.611,-6.258 l 14.9,-14.783 c 3.088,-3.062 8.897,-7.571 13.131,-3.372 1.943,1.93 5.081,1.917 7.01,-0.025 1.93,-1.942 1.918,-5.081 -0.025,-7.009 -7.197,-7.142 -17.834,-5.822 -27.098,3.37 L 5.543,47.941 C 1.968,51.49 0,56.21 0,61.234 c 0,5.024 1.968,9.743 5.544,13.292 3.679,3.65 8.51,5.474 13.343,5.474 4.834,0 9.667,-1.824 13.348,-5.476 l 4.051,-4.021 c 1.942,-1.928 1.953,-5.066 0.023,-7.009 -1.927,-1.941 -5.068,-1.952 -7.011,-0.023 z M 74.454,6.044 C 66.724,-1.626 55.916,-2.042 48.76,5.058 l -5.046,5.009 c -1.943,1.929 -1.955,5.066 -0.025,7.009 1.93,1.943 5.068,1.954 7.011,0.025 l 5.044,-5.006 c 3.707,-3.681 8.561,-2.155 11.727,0.986 1.688,1.673 2.615,3.896 2.615,6.258 0,2.363 -0.928,4.586 -2.613,6.259 l -15.897,15.77 c -7.269,7.212 -10.679,3.827 -12.134,2.383 -1.943,-1.929 -5.08,-1.917 -7.01,0.025 -1.93,1.942 -1.918,5.081 0.025,7.009 3.337,3.312 7.146,4.954 11.139,4.954 4.889,0 10.053,-2.462 14.963,-7.337 L 74.456,32.632 C 78.03,29.083 80,24.362 80,19.338 80,14.316 78.03,9.595 74.454,6.044 Z"/></g></svg>