<svg xmlns="http://www.w3.org/2000/svg" xmlns:svg="http://www.w3.org/2000/svg" id="svg10" width="24" height="24" x="0" y="0" enable-background="new 0 0 1000 1000" version="1.1" viewBox="0 0 24 24" xml:space="preserve"><metadata id="metadata2">Svg Vector Icons : http://www.onlinewebfonts.com/icon</metadata><g id="g8" transform="translate(0,-976)"><path id="path2" d="m 17,986.75002 v -3.75 c 0,-2.75633 -2.24242,-5 -5,-5 -2.75695,0 -5,2.24367 -5,5 v 3.75 c -1.38062,0 -2.5,1.11937 -2.5,2.5 v 6.25 c 0,1.38066 1.11938,2.49996 2.5,2.49996 h 10 c 1.38063,0 2.5,-1.1193 2.5,-2.49996 v -6.25 c 0,-1.38063 -1.11937,-2.5 -2.5,-2.5 z m -4.375,6.05836 v 2.06664 c 0,0.34547 -0.27953,0.625 -0.625,0.625 -0.34547,0 -0.625,-0.27953 -0.625,-0.625 v -2.06664 c -0.36684,-0.21731 -0.625,-0.60059 -0.625,-1.05836 0,-0.69094 0.55969,-1.25 1.25,-1.25 0.69031,0 1.25,0.5591 1.25,1.25 0,0.45777 -0.25816,0.84105 -0.625,1.05836 z m 1.875,-6.05836 h -5 v -3.75 c 0,-1.37941 1.12121,-2.5 2.5,-2.5 1.37816,0 2.5,1.12063 2.5,2.5 z" style="stroke-width:.0390625"/></g></svg>