<svg xmlns="http://www.w3.org/2000/svg" xmlns:svg="http://www.w3.org/2000/svg" id="svg4492" width="24" height="24" version="1.1" viewBox="0 0 24 24"><metadata id="metadata4489"/><g id="layer1" transform="translate(0,-290.64998)"><path style="color:#000;font-style:normal;font-variant:normal;font-weight:400;font-stretch:normal;font-size:medium;line-height:normal;font-family:sans-serif;font-variant-ligatures:normal;font-variant-position:normal;font-variant-caps:normal;font-variant-numeric:normal;font-variant-alternates:normal;font-feature-settings:normal;text-indent:0;text-align:start;text-decoration:none;text-decoration-line:none;text-decoration-style:solid;text-decoration-color:#000;letter-spacing:normal;word-spacing:normal;text-transform:none;writing-mode:lr-tb;direction:ltr;text-orientation:mixed;dominant-baseline:auto;baseline-shift:baseline;text-anchor:start;white-space:normal;shape-padding:0;clip-rule:nonzero;display:inline;overflow:visible;visibility:visible;opacity:1;isolation:auto;mix-blend-mode:normal;color-interpolation:sRGB;color-interpolation-filters:linearRGB;solid-color:#000;solid-opacity:1;vector-effect:none;fill:#000;fill-opacity:1;fill-rule:evenodd;stroke:none;stroke-width:1.99987841px;stroke-linecap:butt;stroke-linejoin:round;stroke-miterlimit:4;stroke-dasharray:none;stroke-dashoffset:0;stroke-opacity:1;color-rendering:auto;image-rendering:auto;shape-rendering:auto;text-rendering:auto;enable-background:accumulate" id="path4513" d="m 4.984375,292.22852 a 1.0000392,1.0000392 0 0 0 -0.9824219,1.06054 l 1.0058594,16.77735 a 1.0000392,1.0000392 0 0 0 1.7460937,0.60351 l 3.0136719,-3.4043 3.0585939,5.30469 a 1.0000392,1.0000392 0 0 0 1.367187,0.36719 l 1.623047,-0.93945 1.625,-0.94141 a 1.0000392,1.0000392 0 0 0 0.365235,-1.36328 l -3.058594,-5.30859 4.453125,-0.91407 a 1.0000392,1.0000392 0 0 0 0.349609,-1.81445 L 5.5527344,292.39453 A 1.0000392,1.0000392 0 0 0 4.984375,292.22852 Z m 1.1328125,2.9375 10.3222655,6.83007 -3.451172,0.70703 a 1.0000392,1.0000392 0 0 0 -0.666015,1.47852 l 3.253906,5.64453 -0.761719,0.43945 -0.755859,0.4375 -3.251953,-5.64062 A 1.0000392,1.0000392 0 0 0 9.1914062,304.89844 L 6.859375,307.5332 Z"/></g></svg>