<svg xmlns="http://www.w3.org/2000/svg" xmlns:svg="http://www.w3.org/2000/svg" id="svg6" width="24" height="24" version="1.1" viewBox="0 0 24 24"><metadata id="metadata12"/><title id="title2">plus</title><path id="path4" d="m 10.13345,1.73275 h 3.7331 q 0.392,0 0.6629,0.2709 0.2709,0.2709 0.2709,0.6629 v 6.5331 h 6.5331 q 0.392,0 0.6629,0.2709 0.2709,0.2709 0.2709,0.6629 v 3.7331 q 0,0.392 -0.2709,0.6629 -0.2709,0.2709 -0.6629,0.2709 h -6.5331 v 6.5331 q 0,0.392 -0.2709,0.6629 -0.2709,0.2709 -0.6629,0.2709 h -3.7331 q -0.392,0 -0.6629,-0.2709 -0.2709,-0.2709 -0.2709,-0.6629 v -6.5331 h -6.5331 q -0.392,0 -0.6629,-0.2709 -0.2709,-0.2709 -0.2709,-0.6629 v -3.7331 q 0,-0.392 0.2709,-0.6629 0.2709,-0.2709 0.6629,-0.2709 h 6.5331 v -6.5331 q 0,-0.392 0.2709,-0.6629 0.2709,-0.2709 0.6629,-0.2709 z" style="stroke-width:.69999999"/></svg>