<svg xmlns="http://www.w3.org/2000/svg" xmlns:svg="http://www.w3.org/2000/svg" id="svg6" width="24" height="24" version="1.1" viewBox="0 0 24 24"><metadata id="metadata12"/><title id="title2">uniE014</title><path id="path4" d="m 17.6749,2.98435 3.3229,3.3411 q 0.1491,0.1491 0.1491,0.3451 0,0.196 -0.1491,0.3269 l -4.984,5.0029 4.984,5.0029 q 0.1491,0.1309 0.1491,0.3269 0,0.196 -0.1491,0.3451 l -3.3229,3.3229 q -0.1491,0.1491 -0.3451,0.1491 -0.196,0 -0.3269,-0.1491 L 12,16.01415 l -5.0029,4.984 q -0.1309,0.1491 -0.3269,0.1491 -0.196,0 -0.3451,-0.1491 l -3.3229,-3.3229 q -0.1491,-0.1491 -0.1491,-0.3451 0,-0.196 0.1491,-0.3269 l 4.984,-5.0029 -4.984,-5.0029 q -0.1491,-0.1309 -0.1491,-0.3269 0,-0.196 0.1491,-0.3451 l 3.3229,-3.3229 q 0.1491,-0.1491 0.3451,-0.1491 0.196,0 0.3269,0.1491 L 12,7.98655 17.0029,2.98365 q 0.1309,-0.1309 0.3269,-0.1309 0.196,0 0.3451,0.1309 z" style="stroke-width:.69999999"/></svg>