<svg xmlns="http://www.w3.org/2000/svg" xmlns:svg="http://www.w3.org/2000/svg" id="svg6" width="24" height="24" version="1.1" viewBox="0 0 24 24"><metadata id="metadata12"/><title id="title2">uniE032</title><path id="rect840" d="m 2.1222499,2.0623487 c -0.022614,0.017118 -0.042782,0.037286 -0.0599,0.0599 C 1.9968515,2.2087782 2,2.3981369 2,2.5085938 V 21.491406 c 0,0.110457 -0.00315,0.299815 0.062349,0.386344 0.017118,0.02261 0.037286,0.04278 0.0599,0.0599 C 2.2087782,22.003149 2.3981369,22 2.5085938,22 H 21.491406 c 0.110457,0 0.299815,0.0031 0.386344,-0.06235 0.02261,-0.01712 0.04278,-0.03729 0.0599,-0.0599 C 22.003149,21.791222 22,21.601863 22,21.491406 V 7.3171875 A 0.49086397,0.49086397 67.831814 0 0 21.860226,6.9741377 L 17.139774,2.1430498 A 0.47504266,0.47504266 22.831814 0 0 16.8,2 H 2.5085938 C 2.3981369,2 2.2087791,1.9968515 2.1222499,2.0623487 Z" style="fill:#000;stroke:#000;stroke-width:.4;stroke-linecap:round;stroke-linejoin:round;paint-order:stroke markers fill;stroke-opacity:1;stroke-miterlimit:4;stroke-dasharray:none;fill-opacity:1"/><path style="fill:#fff;fill-opacity:1;stroke:#000;stroke-width:.4;stroke-linecap:round;stroke-linejoin:miter;stroke-miterlimit:4;stroke-dasharray:none;stroke-opacity:1;paint-order:stroke markers fill" id="rect842" width="14" height="8" x="5" y="12.904" d="m 5.5,12.90425 h 13 a 0.5,0.5 45 0 1 0.5,0.5 v 7 a 0.5,0.5 135 0 1 -0.5,0.5 h -13 a 0.5,0.5 45 0 1 -0.5,-0.5 v -7 a 0.5,0.5 135 0 1 0.5,-0.5 z" ry="0"/><path style="fill:#000;fill-opacity:1;fill-rule:evenodd;stroke:none;stroke-width:.555554px;stroke-linecap:butt;stroke-linejoin:miter;stroke-opacity:1" id="path822-5" d="M 7,15.444445 H 17 V 16 H 7 Z"/><path style="fill:#000;fill-opacity:1;fill-rule:evenodd;stroke:none;stroke-width:.555554px;stroke-linecap:butt;stroke-linejoin:miter;stroke-opacity:1" id="path822-5-3" d="m 7,16.425001 h 10 v 0.555555 H 7 Z"/><path style="fill:#000;fill-opacity:1;fill-rule:evenodd;stroke:none;stroke-width:.555554px;stroke-linecap:butt;stroke-linejoin:miter;stroke-opacity:1" id="path822-5-5" d="m 7,17.405557 h 10 v 0.555556 H 7 Z"/><path style="fill:#000;fill-opacity:1;fill-rule:evenodd;stroke:none;stroke-width:.555554px;stroke-linecap:butt;stroke-linejoin:miter;stroke-opacity:1" id="path822-5-6" d="m 7,18.386112 h 10 v 0.555556 H 7 Z"/><path style="fill:#fff;stroke:#000;stroke-width:.4;stroke-linecap:round;stroke-linejoin:miter;stroke-miterlimit:4;stroke-dasharray:none;stroke-opacity:1;paint-order:stroke markers fill;fill-opacity:1" id="rect844" width="11" height="6" x="5" y="4" d="m 5.5,4 h 10 A 0.5,0.5 45 0 1 16,4.5 v 5 A 0.5,0.5 135 0 1 15.5,10 l -10,0 A 0.5,0.5 45 0 1 5,9.5 v -5 A 0.5,0.5 135 0 1 5.5,4 Z"/><path style="fill:#000;fill-opacity:1;stroke:none;stroke-width:.4;stroke-linecap:round;stroke-linejoin:miter;stroke-miterlimit:4;stroke-dasharray:none;stroke-opacity:1;paint-order:stroke markers fill" id="rect849" width="3" height="4" x="12" y="5" d="m 12.5,5 h 2 A 0.5,0.5 45 0 1 15,5.5 v 3 A 0.5,0.5 135 0 1 14.5,9 h -2 A 0.5,0.5 45 0 1 12,8.5 v -3 A 0.5,0.5 135 0 1 12.5,5 Z"/></svg>