<svg xmlns="http://www.w3.org/2000/svg" xmlns:svg="http://www.w3.org/2000/svg" id="svg6" width="24" height="24" version="1.1" viewBox="0 0 24 24"><metadata id="metadata12"/><title id="title2">uniE087</title><path id="path4" d="m 10.6,0.8 h 2.8 q 0.1869,0 0.3269,0.14 0.14,0.14 0.14,0.3269 V 4.888 q 1.9229,0.504 3.332,1.9131 1.4091,1.4091 1.9131,3.332 h 3.6211 q 0.1869,0 0.3269,0.14 0.14,0.14 0.14,0.3269 v 2.8 q 0,0.1869 -0.14,0.3269 -0.14,0.14 -0.3269,0.14 H 19.112 q -0.504,1.9229 -1.9131,3.332 -1.4091,1.4091 -3.332,1.9131 v 3.6211 q 0,0.1869 -0.14,0.3269 -0.14,0.14 -0.3269,0.14 h -2.8 q -0.1869,0 -0.3269,-0.14 -0.14,-0.14 -0.14,-0.3269 V 19.112 Q 8.2102,18.608 6.8011,17.1989 5.392,15.7898 4.888,13.8669 H 1.2669 Q 1.08,13.8669 0.94,13.7269 0.8,13.5869 0.8,13.4 v -2.8 q 0,-0.1869 0.14,-0.3269 0.14,-0.14 0.3269,-0.14 H 4.888 Q 5.392,8.2102 6.8011,6.8011 8.2102,5.392 10.1331,4.888 V 1.2669 q 0,-0.1869 0.14,-0.3269 Q 10.4131,0.8 10.6,0.8 Z m 3.2669,5.7309 v 3.136 q 0,0.1869 -0.14,0.3269 -0.14,0.14 -0.3269,0.14 h -2.8 q -0.1869,0 -0.3269,-0.14 -0.14,-0.14 -0.14,-0.3269 V 6.5309 Q 8.864,6.96 7.912,7.912 6.96,8.864 6.5309,10.1331 h 3.136 q 0.1869,0 0.3269,0.14 0.14,0.14 0.14,0.3269 v 2.8 q 0,0.1869 -0.14,0.3269 -0.14,0.14 -0.3269,0.14 H 6.5309 Q 6.96,15.136 7.912,16.088 q 0.952,0.952 2.2211,1.3811 v -3.136 q 0,-0.1869 0.14,-0.3269 0.14,-0.14 0.3269,-0.14 h 2.8 q 0.1869,0 0.3269,0.14 0.14,0.14 0.14,0.3269 v 3.136 Q 15.136,17.04 16.088,16.088 17.04,15.136 17.4691,13.8669 h -3.136 q -0.1869,0 -0.3269,-0.14 -0.14,-0.14 -0.14,-0.3269 v -2.8 q 0,-0.1869 0.14,-0.3269 0.14,-0.14 0.3269,-0.14 h 3.136 Q 17.04,8.864 16.088,7.912 15.136,6.96 13.8669,6.5309 Z" style="stroke-width:.69999999"/></svg>