<svg xmlns="http://www.w3.org/2000/svg" xmlns:svg="http://www.w3.org/2000/svg" id="svg11" width="24" height="24" version="1.1" viewBox="0 0 24 24"><metadata id="metadata17"/><g id="surface1"><path style="fill:#000;fill-opacity:1;fill-rule:evenodd;stroke:none;stroke-width:1.44846249" id="path2" d="M 20.625 0.49804688 C 19.035087 0.49804687 17.751953 1.7811803 17.751953 3.3710938 C 17.751953 3.4206465 17.765113 3.4666955 17.767578 3.515625 L 5.2070312 9.7988281 C 4.7079437 9.380997 4.074569 9.1191406 3.375 9.1191406 C 1.7850864 9.1191406 0.5 10.410087 0.5 12 C 0.5 13.584256 1.7850864 14.875 3.375 14.875 C 4.0720565 14.875 4.7028536 14.613876 5.2011719 14.199219 L 17.765625 20.480469 C 17.763215 20.528693 17.751953 20.574235 17.751953 20.623047 C 17.751953 22.21296 19.035087 23.501953 20.625 23.501953 C 22.214915 23.501953 23.5 22.21296 23.5 20.623047 C 23.5 19.038791 22.214915 17.748047 20.625 17.748047 C 19.925902 17.748047 19.294611 18.007693 18.796875 18.421875 L 6.234375 12.142578 C 6.2367952 12.094354 6.2480469 12.048812 6.2480469 12 C 6.2480469 11.951177 6.2367792 11.905651 6.234375 11.857422 L 18.796875 5.5722656 C 19.294747 5.986178 19.925454 6.2460938 20.625 6.2460938 C 22.214915 6.2460937 23.5 4.9610088 23.5 3.3710938 C 23.5 1.7811803 22.214915 0.49804688 20.625 0.49804688 z"/></g></svg>