<svg xmlns="http://www.w3.org/2000/svg" xmlns:svg="http://www.w3.org/2000/svg" id="svg6" width="24" height="24" version="1.1" viewBox="0 0 24 24"><metadata id="metadata12"/><title id="title2">uniE020</title><path id="path4" d="m 9.255657,0.109219 h 5.488 q 0.749798,0 1.28968,0.539882 0.539882,0.539882 0.539882,1.28968 v 1.829562 h 5.030438 q 0.183162,0 0.320362,0.1372 0.1372,0.1372 0.1372,0.320362 v 1.372 H 1.938781 v -1.372 q 0,-0.183162 0.1372,-0.320362 0.1372,-0.1372 0.320362,-0.1372 H 7.426781 V 1.938781 q 0,-0.749798 0.539882,-1.28968 0.539882,-0.539882 1.28968,-0.539882 z m 0,1.829562 v 1.829562 h 5.488 V 1.938781 Z m 10.976,5.488 v 14.634438 q 0,0.749798 -0.539882,1.28968 -0.539882,0.539882 -1.28968,0.539882 H 5.596533 q -0.749798,0 -1.28968,-0.539882 -0.539882,-0.539882 -0.539882,-1.28968 V 7.426781 h 16.464 z M 5.597219,9.256343 V 22.061905 H 7.426781 V 9.256343 Z m 3.658438,0 v 12.805562 h 1.829562 V 9.256343 Z m 3.659124,0 v 12.805562 h 1.829562 V 9.256343 Z m 3.658438,0 v 12.805562 h 1.829562 V 9.256343 Z" style="stroke-width:.68599999"/></svg>