<svg xmlns="http://www.w3.org/2000/svg" xmlns:svg="http://www.w3.org/2000/svg" id="svg8" width="24" height="24" version="1.1" viewBox="0 0 24 24"><metadata id="metadata5"/><g id="layer1" transform="translate(0,-290.65)"><path style="color:#000;font-style:normal;font-variant:normal;font-weight:400;font-stretch:normal;font-size:medium;line-height:normal;font-family:sans-serif;font-variant-ligatures:normal;font-variant-position:normal;font-variant-caps:normal;font-variant-numeric:normal;font-variant-alternates:normal;font-feature-settings:normal;text-indent:0;text-align:start;text-decoration:none;text-decoration-line:none;text-decoration-style:solid;text-decoration-color:#000;letter-spacing:normal;word-spacing:normal;text-transform:none;writing-mode:lr-tb;direction:ltr;text-orientation:mixed;dominant-baseline:auto;baseline-shift:baseline;text-anchor:start;white-space:normal;shape-padding:0;clip-rule:nonzero;display:inline;overflow:visible;visibility:visible;opacity:1;isolation:auto;mix-blend-mode:normal;color-interpolation:sRGB;color-interpolation-filters:linearRGB;solid-color:#000;solid-opacity:1;vector-effect:none;fill:#000;fill-opacity:1;fill-rule:evenodd;stroke:none;stroke-width:2;stroke-linecap:butt;stroke-linejoin:round;stroke-miterlimit:4;stroke-dasharray:none;stroke-dashoffset:0;stroke-opacity:1;color-rendering:auto;image-rendering:auto;shape-rendering:auto;text-rendering:auto;enable-background:accumulate" id="path819" d="M 11.964844 1.5 C 11.613764 1.5124 11.294957 1.708175 11.125 2.015625 L 0.625 21.015625 C 0.25610685 21.682185 0.73817283 22.49997 1.5 22.5 L 22.5 22.5 C 23.261827 22.49997 23.743893 21.682185 23.375 21.015625 L 12.875 2.015625 C 12.692852 1.686135 12.341099 1.48686 11.964844 1.5 z M 11.5 7.5 L 12.5 7.5 A 1.0001 1.0001 0 0 1 13.5 8.5 L 13.5 14.5 A 1.0001 1.0001 0 0 1 12.5 15.5 L 11.5 15.5 A 1.0001 1.0001 0 0 1 10.5 14.5 L 10.5 8.5 A 1.0001 1.0001 0 0 1 11.5 7.5 z M 12 17 C 12.816582 17 13.5 17.68342 13.5 18.5 C 13.5 19.31658 12.816582 20 12 20 C 11.183418 20 10.5 19.31658 10.5 18.5 C 10.5 17.68342 11.183418 17 12 17 z" transform="translate(0,290.65)"/></g></svg>